<?xml version="1.0" encoding="UTF-8"?>
<!DOCTYPE svg PUBLIC "-//W3C//DTD SVG 1.1//EN" "http://www.w3.org/Graphics/SVG/1.1/DTD/svg11.dtd">
<!-- Creator: CorelDRAW X7 -->
<svg xmlns="http://www.w3.org/2000/svg" xml:space="preserve" width="166.611mm" height="54.7417mm" version="1.1" style="shape-rendering:geometricPrecision; text-rendering:geometricPrecision; image-rendering:optimizeQuality; fill-rule:evenodd; clip-rule:evenodd"
viewBox="0 0 20618 6774"
 xmlns:xlink="http://www.w3.org/1999/xlink">
 <defs>
  <style type="text/css">
   <![CDATA[
    .fil0 {fill:#1F1B20}
    .fil1 {fill:#098178}
   ]]>
  </style>
 </defs>
 <g id="Layer_x0020_1">
  <metadata id="CorelCorpID_0Corel-Layer"/>
  <g id="_2266087233392">
   <path class="fil0" d="M6417 3667c9,-19 9,-43 18,-67 9,-24 3,-1 10,-33l102 -367c5,-19 4,-9 12,-32l19 -73c4,-14 5,-25 8,-35l17 -68c4,-27 13,-36 19,-66l53 -211c7,-27 5,-42 15,-70 12,-37 11,-35 11,-81 38,10 24,17 30,55 4,25 2,11 11,33l69 278c5,17 8,16 14,37l160 587c4,22 0,16 7,36 0,2 1,4 2,6 0,1 1,3 2,5l11 66c-45,0 -59,-7 -107,-7l-483 7zm-982 1110c30,8 47,39 121,43 60,3 89,21 149,21 87,0 183,10 267,-10 41,-10 37,-11 89,-11 32,-48 34,-84 53,-146l23 -77c8,-25 16,-53 24,-76l33 -117c5,-19 8,-19 13,-36l46 -160c36,0 39,7 78,7l762 0c35,0 31,-7 64,-7 13,20 20,26 28,58l118 372c19,44 47,85 80,118l43 37c56,40 109,48 186,48 61,0 81,11 144,2 73,-10 127,-5 195,-33 20,-8 36,-13 56,-22 24,-10 37,-10 37,-38 0,-6 -12,-50 -16,-61 -9,-23 -2,0 -10,-27 -5,-18 -2,-15 -9,-33l-105 -322c-7,-17 -4,-12 -10,-33l-93 -291c-2,-7 -5,-20 -8,-27 -8,-21 -4,-5 -11,-32l-39 -118c-22,-79 -66,-191 -84,-265l-38 -119c-6,-17 -9,-19 -12,-30 -30,-93 -55,-203 -92,-292 -6,-15 -6,-12 -10,-26 -5,-21 -1,-15 -8,-35l-39 -117c-5,-16 -5,-10 -9,-26l-264 -825c-5,-14 -8,-16 -13,-30 -3,-13 -2,-18 -6,-30 -7,-26 -19,-68 -48,-79 -2,-1 -4,-1 -5,-2 -2,0 -4,0 -6,-1 -2,0 -4,-1 -6,-1l-46 -5c-60,-2 -57,-14 -142,-14 -58,0 -103,-1 -151,-6 -33,-4 -104,6 -148,6 -81,0 -74,0 -144,12 -46,8 -98,-15 -125,32 -22,39 -61,186 -77,229 -9,26 -2,-2 -9,27 -6,25 1,12 -9,34l-136 411c-4,15 -13,44 -19,60l-192 583c-1,2 -1,4 -1,6l-336 1023c-1,2 -2,4 -2,6l-85 256c-22,69 -46,109 -46,189z"/>
   <path class="fil0" d="M8209 2813c8,31 23,53 35,79 20,40 32,92 38,133 8,66 20,62 20,151 0,203 -11,859 8,1016 4,28 8,75 12,103 17,121 63,226 126,329l152 147c2,0 3,1 5,2l23 13c39,20 127,55 172,55 56,1 105,7 158,1 36,-4 67,0 100,-13l108 -35c9,-3 12,-5 20,-8l312 -199c17,-16 12,-17 35,-23 44,29 89,136 205,200 38,21 88,47 130,55 159,28 177,62 290,-114 9,-15 14,-26 23,-41 89,-163 53,-152 13,-207 -28,-39 -53,-95 -57,-143 -10,-165 -7,-338 -7,-505l0 -1018c2,-120 -15,-88 -194,-112 -68,-9 -222,-8 -296,-1 -26,3 -56,12 -86,14 -130,5 -100,8 -100,206l1 1125c0,59 4,81 -36,114l-31 25c-13,9 -18,12 -31,20 -2,2 -9,6 -12,8 -21,13 13,-6 -9,6 -2,0 -4,1 -5,2l-54 24c-8,3 -15,5 -22,7 -83,30 -227,25 -254,-81 -2,-11 -4,-31 -6,-43 -5,-33 -15,-60 -17,-90 -10,-132 0,-644 0,-818 0,-109 11,-221 -25,-323l-56 -101c-11,-14 -13,-15 -25,-25 -1,-1 -3,-3 -4,-3 -1,-1 -3,-3 -4,-4 -1,0 -3,-2 -4,-3l-52 -33c-85,-48 -199,-35 -293,-35 -38,0 -138,32 -171,49 -47,24 -100,54 -135,94z"/>
   <path class="fil0" d="M17764 4564c14,50 120,153 169,187 17,12 7,5 27,16l125 52c123,22 168,55 237,-39 22,-29 38,-48 56,-79l35 -65c4,-7 9,-15 13,-22 10,-20 9,-22 17,-47 8,-22 13,-31 18,-53 -8,-12 -14,-20 -25,-32 -7,-7 -5,-4 -15,-14 -2,-2 -11,-14 -12,-16 -36,-55 -53,-115 -60,-181 -19,-161 -9,-1362 -9,-1565 -45,-22 -230,-23 -290,-30 -63,-7 -78,2 -144,2 -95,-1 -90,14 -149,14 -107,0 -85,8 -85,235l0 1117c1,75 -11,76 -55,109 -38,28 -78,52 -123,69 -8,3 -23,8 -32,11 -51,15 -116,17 -167,-5 -57,-24 -61,-32 -77,-100 -24,-102 -16,-116 -16,-233 0,-111 7,-784 0,-876 -2,-21 -7,-31 -11,-53 -24,-119 -44,-204 -175,-266 -16,-7 1,-1 -21,-8 -13,-3 -17,-3 -28,-7 -22,-7 -25,-15 -49,-15 -68,0 -175,-12 -233,11 -47,18 -88,8 -192,77 -124,82 -39,57 -9,196 5,21 8,33 14,51 8,25 4,25 9,55 4,29 16,72 19,109 3,38 0,88 0,128l0 897c0,58 14,66 20,108 8,58 11,90 33,145 37,91 13,52 66,140 21,36 28,52 55,81 59,62 139,133 226,151 70,14 26,24 105,22 73,-1 173,15 236,-6 26,-8 18,-8 49,-15 60,-13 165,-71 219,-101 16,-9 23,-13 39,-25 15,-12 24,-15 39,-25 27,-17 49,-37 73,-56 42,-33 42,-49 78,-49z"/>
   <path class="fil0" d="M12770 4201c0,-58 -4,-42 7,-79 20,-69 21,-126 128,-178 6,-2 3,-3 15,-6l327 -1 0 306c0,25 -29,35 -47,46l-92 57c-54,24 -115,33 -175,33 -19,0 -8,-5 -30,-13 -14,-5 -19,-4 -32,-10 -6,-2 -20,-10 -28,-15 -19,-13 -9,-4 -23,-20 -25,-30 -50,-92 -50,-120zm206 -1025l83 9c43,11 49,10 84,30 100,55 104,179 104,281 -171,0 -358,-17 -525,23l-163 51c-1,1 -3,2 -5,2 -1,1 -3,2 -5,2 -17,6 -20,7 -36,14 -19,10 -38,23 -58,35l-95 61 -105 109c-41,55 -71,114 -98,179 -32,75 -48,224 -34,306 6,29 4,44 7,79 4,54 39,135 64,185 70,138 191,238 334,292l100 28c102,10 141,18 244,3 43,-6 55,1 93,-14l79 -28c19,-6 22,-4 39,-10 8,-4 27,-12 39,-18l110 -61c1,-1 3,-2 4,-3l22 -14c42,-29 77,-65 124,-89l72 83c38,35 98,70 148,87l58 21c56,11 105,22 163,22 60,0 206,-258 211,-329 2,-25 -20,-37 -35,-54 -17,-18 -25,-31 -38,-54 -50,-92 -39,-190 -39,-324 0,-118 10,-741 -5,-806l-58 -220c-30,-72 -68,-135 -123,-190l-26 -24c-37,-38 -60,-46 -102,-76 -20,-15 -33,-22 -60,-32 -71,-28 -130,-55 -209,-62 -36,-3 -35,-13 -78,-14 -41,-1 -53,-5 -86,-7 -21,-1 -144,7 -167,11 -48,9 -117,8 -163,22 -29,9 -40,9 -75,10 -44,1 -113,18 -155,30l-147 31c-22,6 -13,6 -31,12 -65,21 -132,33 -198,58 -2,0 -15,5 -16,5 -36,17 -18,60 -15,106 2,44 25,105 37,148l84 186c21,36 39,47 79,30 13,-6 1,-2 16,-6l49 -14c25,-11 13,-5 39,-11 25,-6 12,-4 32,-11l264 -63c28,-6 57,-1 87,-6 31,-5 45,-11 81,-11z"/>
   <path class="fil0" d="M18646 2820c0,21 39,63 53,83l28 43c0,1 1,3 2,4 1,2 2,3 3,5 1,1 2,3 3,4l92 143c90,131 171,269 259,402 24,37 144,217 144,234 0,14 -90,151 -114,185 -15,21 -26,42 -42,65l-434 683c-32,51 -67,96 10,124l274 46 170 -7c29,-3 33,-10 58,-13 34,-4 44,6 69,-10 1,0 17,-15 18,-17 1,-1 2,-3 3,-4l315 -540c39,26 108,155 137,198 12,16 11,19 22,35l37 55c1,2 2,3 3,5 1,1 2,3 3,4l26 38c22,33 42,71 70,100l14 15c64,76 84,87 183,130 56,24 198,22 256,8 18,-4 27,-11 42,-15l58 -13c2,-1 3,-2 5,-2 2,-1 4,-1 5,-2l136 -63c80,-45 80,-55 27,-130l-361 -549c-18,-23 -24,-33 -40,-60 -16,-26 -28,-37 -44,-63l-138 -210c-43,-65 -2,-82 47,-160l146 -224c5,-9 8,-15 16,-27l187 -289c22,-30 166,-247 166,-261 0,-57 -77,-60 -114,-70 -40,-11 -124,-20 -170,-22 -169,-11 -144,5 -257,13 -20,1 -28,-2 -46,5l-29 20c-23,26 -39,56 -56,86l-180 297c-1,1 -2,3 -3,4 -1,2 -2,3 -3,5l-31 54c-9,15 -9,16 -22,28 -20,-15 -36,-50 -52,-75 -10,-15 -17,-22 -27,-37l-138 -211c-1,-2 -2,-3 -3,-5l-97 -116c-9,-8 -11,-9 -19,-17l-65 -41c-44,-20 -106,-32 -161,-32 -58,0 -161,20 -221,35 -45,11 -97,35 -136,56 -22,12 -84,43 -84,73z"/>
   <path class="fil0" d="M14456 1994l5 1219c2,34 -5,44 -5,84l0 1010c0,61 -2,188 17,239 21,57 29,97 76,152 1,2 2,3 3,4 1,1 2,3 3,4l33 32c46,39 136,82 181,82l1103 0c35,0 137,-30 173,-47l122 -92c1,-1 3,-2 4,-3 60,-69 78,-153 85,-243 3,-38 28,-213 -21,-213l-1007 18c-108,17 -82,-12 -82,-111l0 -1786c1,-79 -10,-114 -22,-177 -13,-67 -43,-111 -88,-161 -12,-13 -14,-14 -26,-24 -37,-32 -23,-22 -61,-39 -2,0 -4,-1 -5,-2 -2,-1 -8,-4 -10,-4 -108,-53 -292,-34 -428,-34 -36,0 -50,52 -50,92z"/>
   <path class="fil0" d="M10500 2991c0,83 67,36 131,254 34,118 26,446 26,578 0,325 0,650 0,975 61,41 60,9 156,30 175,37 345,-9 435,-8 52,1 76,-6 78,-57 7,-176 0,-508 0,-698 0,-74 -6,-519 2,-552 6,-26 38,-60 53,-83l70 -71c41,-31 103,-48 152,-55 33,-5 31,-14 57,-14l107 20c46,5 63,19 106,22 22,-20 31,-42 44,-70 25,-53 50,-108 63,-165 7,-29 1,-12 12,-37 28,-67 52,-260 52,-340 -59,-40 -48,-19 -125,-31 -121,-20 -93,-19 -216,-19l-120 30c-89,35 -162,73 -226,144l-60 82c-29,44 -44,85 -64,100 -60,-90 -26,-70 -122,-176l-114 -93c-100,-63 -136,-54 -183,-72 -50,-20 -23,-15 -100,-15 -54,0 -130,133 -152,176 -13,28 -62,126 -62,145z"/>
  </g>
  <g id="_2266087234896">
   <path class="fil1" d="M809 6563c23,0 182,-44 221,-55 14,-4 7,-3 21,-8 16,-5 26,-5 42,-10l79 -20c26,-9 23,-4 47,-8 20,-3 18,-6 40,-12l88 -18c45,-7 46,-13 89,-16 14,-1 29,-4 44,-8 40,-11 56,-4 89,-12 32,-7 47,-14 90,-15 30,0 111,-17 188,-17 35,-1 53,-9 88,-12 35,-2 70,3 104,-2 58,-8 110,-1 153,-4 110,-9 44,0 141,0 39,0 71,0 102,4 32,5 65,1 98,2 20,0 122,16 188,17l183 28c47,8 19,-9 94,12l212 40c21,5 26,10 40,13 22,4 25,-1 47,6l345 94c17,6 10,-3 16,13 -19,11 -109,7 -134,6 -88,-5 -17,-9 -124,-1 -21,2 -48,1 -70,1l-2521 -18zm3371 -59l0 -4117c18,-10 74,-56 106,-64l0 4017c0,116 8,78 -62,138 -15,13 -20,24 -44,26zm-3992 -4181c24,2 59,31 82,46l29 18 0 4117c-36,-3 -62,-43 -111,-76l0 -4105zm650 -30l3020 0c147,0 120,10 177,51 13,10 40,25 40,43l0 4182c-61,0 -18,2 -44,-9 -55,-23 -155,-49 -198,-66 -15,-6 -11,-4 -27,-8 -19,-4 -28,-8 -50,-14l-129 -36c-13,-5 -7,-5 -25,-10l-212 -51c-24,-3 -33,-12 -50,-16 -27,-5 -25,1 -55,-8 -23,-8 -34,-8 -60,-12l-108 -20c-60,-16 -34,2 -115,-20 -21,-6 -32,-5 -59,-6 -28,-1 -30,-7 -53,-11l-118 -17c-45,-6 -77,-1 -120,-9 -75,-14 -39,-10 -125,-10 -48,1 -83,-8 -124,-11 -139,-10 -192,-7 -327,0 -41,2 -77,12 -123,11 -48,0 -82,-2 -122,7 -37,9 -80,6 -124,12 -23,2 -24,9 -54,11 -74,3 -78,13 -112,17 -25,3 -47,0 -65,5 -81,19 -83,10 -111,18 -48,13 -144,25 -167,32l-54 10c-23,2 -26,10 -82,18l-589 174c-55,19 -30,19 -68,19 0,-31 -6,-34 -3,-61 6,-51 -3,-143 -3,-215l0 -1513c0,-28 4,-27 3,-54l3 -2251c0,-24 -2,-53 -1,-77 2,-40 25,-42 69,-83 19,-17 27,-16 60,-16 106,1 196,-6 305,-6zm3231 -70c0,-13 33,-56 39,-66 8,-13 1,-3 8,-16 1,-1 1,-3 2,-4 1,-1 1,-3 2,-4l13 -22c10,7 20,15 31,23l73 61c9,9 7,7 14,16 -12,17 -63,46 -91,63 -3,3 -4,30 -53,-7 -13,-10 -38,-27 -38,-44zm-3846 -12l55 -50c12,-9 18,-13 30,-23 15,-11 18,-17 32,-27l49 80c23,42 20,41 4,56 0,0 -16,11 -17,12 -49,37 -44,28 -103,-10 -19,-13 -38,-20 -50,-38zm228 -129c13,-6 118,-9 145,-13 51,-6 100,-4 155,-4 81,0 172,-18 298,-18l447 -28c30,-4 99,4 151,4l1254 -1c87,-12 111,7 212,7 55,0 100,4 147,6 54,2 91,12 146,12 105,-1 198,6 288,17 73,8 102,-8 220,9 30,4 49,2 79,3 59,1 29,18 4,63 -39,70 -38,55 -122,55 -103,-1 -207,0 -310,0 -109,0 -200,-6 -305,-6l-1226 -6c-54,0 -99,1 -135,5 -47,4 -109,1 -158,1 -417,0 -815,6 -1231,6l-59 -112zm1302 -182l0 -340c0,-13 4,-17 18,-17 219,0 156,-10 174,48 2,8 17,41 21,49 18,34 38,57 64,83 26,26 52,38 86,55 69,35 135,31 207,12 54,-14 102,-44 138,-84 7,-8 9,-10 17,-19 4,-6 11,-16 14,-21l22 -37c48,-106 -29,-86 189,-86 13,0 17,4 17,17l0 340c0,14 -4,18 -17,18l-932 0c-14,0 -18,-4 -18,-18zm686 -428c0,52 3,72 -24,123 -16,29 -31,49 -61,68 -1,0 -3,1 -4,2l-11 6c-44,27 -107,42 -156,22 -11,-4 -14,-5 -25,-10l-35 -18c-6,-4 -4,-2 -14,-9 -26,-19 -51,-56 -61,-86 -29,-89 -13,-167 61,-229 5,-4 15,-13 20,-15l23 -12c14,-7 11,-8 30,-11 37,-6 96,-9 129,4l44 26c22,14 24,15 40,37 18,25 44,76 44,102zm-833 -53c0,-15 3,-16 6,-29l258 0c71,0 71,-11 71,47l-335 0 0 -18zm927 0l0 -29 241 6c62,3 93,-35 93,41l-317 0c-13,0 -17,-4 -17,-18zm-545 -129l-88 -6 0 -205 674 0 0 194c0,26 -28,17 -88,17 -38,0 -48,-34 -107,-63l-42 -16c-58,-22 -106,-28 -171,-12l-91 38c-31,17 -46,53 -87,53zm1354 -410l-1631 3c-15,1 -12,-3 -34,-3 -15,0 -23,3 -30,3 -16,1 -12,-3 -35,-3l-475 0c0,-14 -3,-23 -3,-30l3 -82 2194 0c42,8 1,-13 14,80 2,15 4,12 -3,32zm105 -41c0,-86 -11,-71 77,-71 -12,22 -13,17 -35,36 -41,38 -8,27 -42,35zm-2491 -71l76 0 0 71c-24,-3 -30,-15 -43,-28 -21,-21 -20,-15 -33,-43zm2491 -123l0 -164c0,-36 6,-43 6,-76l141 0c13,0 18,4 18,17l0 241 -147 0c-14,0 -18,-4 -18,-18zm-2585 0l0 -223c0,-30 62,-17 146,-17 42,0 22,127 24,211 2,58 31,46 -130,47 -21,0 -40,5 -40,-18zm2480 18c-616,0 -1231,0 -1847,0 -101,0 -204,-2 -305,0 -80,1 -58,11 -58,-252 13,-4 13,-6 29,-6l2169 0c14,0 18,4 18,17 0,38 5,216 -6,241zm152 -364l-41 0 0 -59c15,5 53,46 53,47 4,9 8,-3 -1,7 -5,6 11,5 -11,5zm-2362 -17c0,-64 -9,-94 17,-94l2199 0c0,72 10,111 -18,111l-2181 0c-13,0 -17,-4 -17,-17zm-170 17c5,-19 13,-22 27,-37 14,-14 17,-22 37,-27 0,74 10,64 -64,64zm-299 59l0 358c0,54 40,78 68,107l226 225c19,20 27,31 63,31l680 0c0,139 12,106 -129,106 -49,0 -97,0 -146,0 -8,39 8,-25 -3,9 -6,17 -9,5 -9,32l0 363c0,96 79,34 134,54 17,7 13,7 13,34 0,15 0,32 0,47 -1,34 0,67 0,100 -70,16 -439,16 -550,31 -32,5 -72,4 -113,4 -46,0 -67,7 -111,6 -51,0 -65,3 -108,10 -67,10 -163,-2 -228,6 -147,19 -113,-10 -189,46l-227 183c-7,7 -8,8 -16,14l-18 11 0 4393c25,7 181,142 221,172 19,14 28,23 45,37 46,36 48,37 127,37 218,0 419,-6 639,-6 715,0 1430,0 2146,0l785 6c43,0 86,0 129,0 73,1 77,-8 122,-43l238 -190c14,-13 27,-17 27,-42l0 -4335c0,-37 -58,-69 -83,-92l-50 -38c-39,-33 -146,-131 -183,-140 -20,-5 -82,-11 -106,-11 -41,-2 -65,-6 -111,-6 -40,0 -85,2 -123,0 -35,-2 -68,-12 -106,-12 -41,-1 -75,-6 -111,-6 -36,0 -82,3 -117,-1l-224 -16c-37,-3 -75,3 -113,-3 -50,-7 -182,-23 -232,-3l0 -194c38,0 140,14 140,-23l0 -411c0,-14 -9,-23 -23,-23l-264 0 0 -106 680 0c49,0 75,-40 105,-71 1,-1 2,-2 3,-3l185 -184c29,-31 65,-49 65,-100 0,-63 10,-366 -7,-404l-79 -85c0,-1 -2,-2 -3,-3l-20 -20c-18,-16 -30,-27 -45,-43l-81 -83c-1,-1 -2,-2 -3,-3 -17,-16 -71,-80 -90,-80l-2492 0c-19,0 -74,65 -90,81l-170 170c-29,29 -68,50 -68,107z"/>
   <path class="fil1" d="M3295 4786c-13,3 -14,6 -29,6l-2058 0c-16,0 -16,-3 -30,-6l0 -1672c0,-52 -10,-99 18,-99l2099 0 0 1337c0,74 -2,150 0,223 1,39 13,104 5,168l-3 15c-2,13 -2,14 -2,28zm-2222 -1853l0 1941c0,20 26,23 47,23l240 0c27,0 33,-4 53,-4l354 1c202,4 665,11 849,0 14,-1 8,1 25,-1l214 -2c30,1 33,6 64,7l440 -1c21,0 23,-4 41,-6l0 -1976c-18,-2 -20,-6 -41,-6l-2239 0c-21,0 -47,3 -47,24z"/>
  </g>
 </g>
</svg>
