<?xml version="1.0" encoding="UTF-8"?>
<!DOCTYPE svg PUBLIC "-//W3C//DTD SVG 1.1//EN" "http://www.w3.org/Graphics/SVG/1.1/DTD/svg11.dtd">
<!-- Creator: CorelDRAW X7 -->
<svg xmlns="http://www.w3.org/2000/svg" xml:space="preserve" width="40.6033mm" height="43.5637mm" version="1.1" style="shape-rendering:geometricPrecision; text-rendering:geometricPrecision; image-rendering:optimizeQuality; fill-rule:evenodd; clip-rule:evenodd"
viewBox="0 0 10288 11038"
 xmlns:xlink="http://www.w3.org/1999/xlink">
 <defs>
  <style type="text/css">
   <![CDATA[
    .str0 {stroke:#088178;stroke-width:19.3072}
    .fil1 {fill:#FEFEFE}
    .fil0 {fill:#088178}
    .fil2 {fill:#919EA5}
   ]]>
  </style>
 </defs>
 <g id="Layer_x0020_1">
  <metadata id="CorelCorpID_0Corel-Layer"/>
  <path class="fil0" d="M5424 7789c-42,108 -115,126 -258,126l-1866 -1c-86,0 -293,12 -364,-15 -83,-31 -147,-138 -99,-250 73,-170 434,-109 633,-109 205,0 1766,-16 1847,13 82,30 147,133 107,236zm-3 -1204c-74,180 -428,117 -629,117 -208,0 -1765,15 -1850,-13 -83,-28 -156,-128 -108,-248 68,-171 451,-113 636,-113 212,0 1762,-20 1851,17 77,31 145,130 100,240zm3 -1221c-67,179 -326,126 -632,126 -209,0 -1770,20 -1856,-15 -77,-31 -149,-136 -98,-250 75,-169 432,-108 632,-108 206,0 1762,-17 1845,13 82,30 148,130 109,234zm-2454 -1545c130,-34 1049,-7 1263,-7 320,0 3102,-14 3195,5 184,36 200,300 22,358 -144,46 -2223,11 -2556,11 -171,0 -1845,13 -1931,-7 -175,-42 -207,-304 7,-360zm6162 1070c22,-14 23,2 22,-101l0 -1898c-652,23 -1508,-4 -2208,2 -70,0 -90,8 -142,-18 -196,-46 -143,-295 -143,-511 0,-640 14,-1362 -2,-1984l-5045 0 -1 8994c1537,-17 3139,0 4689,0 160,0 524,-41 617,54 109,110 -23,566 405,934 603,520 1434,314 1740,-352 126,-275 117,-893 94,-1228 -364,166 -658,295 -1144,281 -1805,-51 -2794,-2103 -1730,-3546 28,-39 53,-63 84,-102l484 -432c273,-188 687,-341 1095,-359 227,-10 447,9 660,62 220,55 349,138 525,204z"/>
  <path class="fil1" d="M6678 10040c103,296 229,415 400,612 -298,18 -642,3 -946,3l-3798 0c-615,0 -1314,118 -1718,-419 -87,-116 -213,-342 -208,-489l6131 -1c26,3 22,3 41,8 3,1 10,8 12,5 17,-34 80,262 86,281zm1234 -5040c1061,-84 1906,710 1994,1672 99,1073 -712,1923 -1673,2009 -1066,96 -1928,-716 -2007,-1681 -89,-1069 720,-1923 1686,-2000zm-1108 -2126l2355 6c36,152 9,805 9,1009 0,336 10,685 -2,1022l-34 -22c-176,-66 -305,-149 -525,-204 -213,-53 -433,-72 -660,-62 -408,18 -822,171 -1095,359l-484 432c-31,39 -56,63 -84,102 -1064,1443 -75,3495 1730,3546 486,14 780,-115 1144,-281 23,335 32,953 -94,1228 -306,666 -1137,872 -1740,352 -428,-368 -296,-824 -405,-934 -93,-95 -457,-54 -617,-54 -1550,0 -3152,-17 -4689,0l1 -8994 5045 0c16,622 2,1344 2,1984 0,216 -53,465 143,511zm232 -2219c72,41 382,370 468,455 114,115 1329,1303 1379,1397l-1849 -6 2 -1846zm2500 7839c137,-90 295,-297 403,-459 400,-602 455,-1414 169,-2069 -232,-533 -467,-652 -546,-760 -55,-77 -27,-300 -27,-401 0,-577 0,-1153 0,-1730 0,-592 70,-396 -630,-1095l-1729 -1729c-237,-237 -160,-245 -620,-245 -693,0 -5085,-17 -5182,8 -143,37 -135,179 -135,297 13,3013 1,6048 1,9062l-958 -1c-351,0 -311,273 -215,599 137,464 475,804 900,966 385,146 1308,90 1774,90 622,0 1243,0 1865,0 365,0 3426,28 3710,-20 514,-88 887,-427 1068,-796 231,-468 141,-1160 152,-1717z"/>
  <path class="fil0" d="M8006 5805c-1,-312 -55,-260 215,-263l4 291c297,88 534,205 517,615l-390 0c-32,-444 -473,-366 -498,-101 -28,305 338,335 546,445 578,305 414,1034 -203,1077l-5 270 -212 1 -2 -267c-367,-49 -600,-224 -593,-628l392 0c19,450 499,364 561,172 138,-429 -529,-362 -797,-715 -135,-176 -140,-530 110,-735 193,-159 301,-75 355,-162zm-94 -805c-966,77 -1775,931 -1686,2000 79,965 941,1777 2007,1681 961,-86 1772,-936 1673,-2009 -88,-962 -933,-1756 -1994,-1672z"/>
  <path class="fil0" d="M7078 10652c-171,-197 -297,-316 -400,-612 -6,-19 -69,-315 -86,-281 -2,3 -9,-4 -12,-5 -19,-5 -15,-5 -41,-8l-6131 1c-5,147 121,373 208,489 404,537 1103,419 1718,419l3798 0c304,0 648,15 946,-3z"/>
  <path class="fil1" d="M2970 3819c-214,56 -182,318 -7,360 86,20 1760,7 1931,7 333,0 2412,35 2556,-11 178,-58 162,-322 -22,-358 -93,-19 -2875,-5 -3195,-5 -214,0 -1133,-27 -1263,7z"/>
  <path class="fil0" d="M7034 2501l1849 6c-50,-94 -1265,-1282 -1379,-1397 -86,-85 -396,-414 -468,-455l-2 1846z"/>
  <path class="fil0 str0" d="M8006 5805c-54,87 -162,3 -355,162 -250,205 -245,559 -110,735 268,353 935,286 797,715 -62,192 -542,278 -561,-172l-392 0c-7,404 226,579 593,628l2 267 212 -1 5 -270c617,-43 781,-772 203,-1077 -208,-110 -574,-140 -546,-445 25,-265 466,-343 498,101l390 0c17,-410 -220,-527 -517,-615l-4 -291c-270,3 -216,-49 -215,263z"/>
  <path class="fil1" d="M5421 6585c45,-110 -23,-209 -100,-240 -89,-37 -1639,-17 -1851,-17 -185,0 -568,-58 -636,113 -48,120 25,220 108,248 85,28 1642,13 1850,13 201,0 555,63 629,-117z"/>
  <path class="fil1" d="M5424 5364c39,-104 -27,-204 -109,-234 -83,-30 -1639,-13 -1845,-13 -200,0 -557,-61 -632,108 -51,114 21,219 98,250 86,35 1647,15 1856,15 306,0 565,53 632,-126z"/>
  <path class="fil1" d="M5424 7789c40,-103 -25,-206 -107,-236 -81,-29 -1642,-13 -1847,-13 -199,0 -560,-61 -633,109 -48,112 16,219 99,250 71,27 278,15 364,15l1866 1c143,0 216,-18 258,-126z"/>
  <path class="fil2" d="M9132 4889l34 22c12,-337 2,-686 2,-1022 0,-204 27,-857 -9,-1009l-2355 -6c52,26 72,18 142,18 700,-6 1556,21 2208,-2l0 1898c1,103 0,87 -22,101z"/>
  <path class="fil1" d="M8067 6169l-791 0c-108,1 -90,47 -89,177 1,179 -39,152 377,152 174,0 357,-5 530,0 -6,82 -94,181 -165,227 -143,92 -314,107 -487,107 -245,1 -256,-32 -256,145 0,39 -4,167 6,194 10,25 114,130 136,159 36,46 147,161 187,212l92 104c10,12 13,15 22,26 44,56 166,182 211,239l183 212c21,23 165,203 183,215 29,19 328,10 384,10 33,0 62,5 82,-16 50,-53 3,-91 -28,-129l-798 -937c-22,-24 -52,-52 -71,-78 68,-25 185,-40 290,-79 469,-175 491,-589 509,-605 35,-22 326,12 368,-17 39,-27 26,-114 25,-167 -1,-176 20,-154 -329,-151 -34,1 -67,8 -78,-19 -7,-21 -13,-51 -21,-75 -8,-25 -17,-46 -27,-68 -25,-56 -59,-96 -71,-124 85,0 171,0 256,0 267,0 264,20 266,-120 1,-43 2,-87 1,-129 -1,-100 -75,-80 -179,-80 0,0 -1500,-4 -1541,1 -40,5 -55,28 -57,71l1 259c5,41 26,57 69,60 81,5 172,-2 255,0 79,3 164,8 241,20 118,18 272,93 314,204z"/>
 </g>
</svg>
