<?xml version="1.0"?>
<svg xmlns="http://www.w3.org/2000/svg" viewBox="0 0 50 50">
    <path style="text-indent:0;text-align:start;line-height:normal;text-transform:none;block-progression:tb;-inkscape-font-specification:Sans" d="M 0 8 L 0 12 L 18 12 L 18 14 L 0 14 L 0 16 L 15 16 L 15 18 L 0 18 L 0 20 L 12 20 L 12 22 L 0 22 L 0 24 L 9 24 L 9 26 L 0 26 L 0 37 C 0 38.654 1.346 40 3 40 L 7.09375 40 C 7.5685656 42.834783 10.035015 45 13 45 C 15.964985 45 18.431434 42.834783 18.90625 40 L 31 40 L 31 10.90625 C 31 9.36125 29.63875 8 28.09375 8 L 0 8 z M 33 15 L 33 40 L 34.09375 40 C 34.57175 42.833 37.032 45 40 45 C 42.968 45 45.42725 42.833 45.90625 40 L 47 40 C 48.542 40 50 38.542 50 37 L 50 33 L 50 27.40625 C 50 25.44725 48.58625 23.34875 48.40625 23.09375 L 44.28125 17.5625 C 43.51225 16.6005 41.933 15 40 15 L 34 15 L 33 15 z M 38 17 L 40 17 C 40.789 17 41.7955 17.6965 42.6875 18.8125 L 46.78125 24.28125 C 47.08225 24.71325 47.80675 25.939 47.96875 27 L 39 27 C 38.552 27 38 26.448 38 26 L 38 17 z M 13 35 C 15.220984 35 17 36.779016 17 39 C 17 41.220984 15.220984 43 13 43 C 10.779016 43 9 41.220984 9 39 C 9 36.779016 10.779016 35 13 35 z M 40 35 C 42.206 35 44 36.794 44 39 C 44 41.206 42.206 43 40 43 C 37.794 43 36 41.206 36 39 C 36 36.794 37.794 35 40 35 z" overflow="visible" font-family="Sans"/>
</svg>
