<?xml version="1.0" encoding="utf-8"?>
<svg viewBox="0 0 4479 6774.0732" xmlns="http://www.w3.org/2000/svg">
  <defs>
    <style type="text/css">
   
    .fil0 {fill:#1F1B20}
    .fil1 {fill:#098178}
   
  </style>
  </defs>
  <g id="_2266087234896" transform="matrix(1, 0, 0, 1, -2.2737367544323206e-13, 0)">
    <path class="fil1" d="M809 6563c23,0 182,-44 221,-55 14,-4 7,-3 21,-8 16,-5 26,-5 42,-10l79 -20c26,-9 23,-4 47,-8 20,-3 18,-6 40,-12l88 -18c45,-7 46,-13 89,-16 14,-1 29,-4 44,-8 40,-11 56,-4 89,-12 32,-7 47,-14 90,-15 30,0 111,-17 188,-17 35,-1 53,-9 88,-12 35,-2 70,3 104,-2 58,-8 110,-1 153,-4 110,-9 44,0 141,0 39,0 71,0 102,4 32,5 65,1 98,2 20,0 122,16 188,17l183 28c47,8 19,-9 94,12l212 40c21,5 26,10 40,13 22,4 25,-1 47,6l345 94c17,6 10,-3 16,13 -19,11 -109,7 -134,6 -88,-5 -17,-9 -124,-1 -21,2 -48,1 -70,1l-2521 -18zm3371 -59l0 -4117c18,-10 74,-56 106,-64l0 4017c0,116 8,78 -62,138 -15,13 -20,24 -44,26zm-3992 -4181c24,2 59,31 82,46l29 18 0 4117c-36,-3 -62,-43 -111,-76l0 -4105zm650 -30l3020 0c147,0 120,10 177,51 13,10 40,25 40,43l0 4182c-61,0 -18,2 -44,-9 -55,-23 -155,-49 -198,-66 -15,-6 -11,-4 -27,-8 -19,-4 -28,-8 -50,-14l-129 -36c-13,-5 -7,-5 -25,-10l-212 -51c-24,-3 -33,-12 -50,-16 -27,-5 -25,1 -55,-8 -23,-8 -34,-8 -60,-12l-108 -20c-60,-16 -34,2 -115,-20 -21,-6 -32,-5 -59,-6 -28,-1 -30,-7 -53,-11l-118 -17c-45,-6 -77,-1 -120,-9 -75,-14 -39,-10 -125,-10 -48,1 -83,-8 -124,-11 -139,-10 -192,-7 -327,0 -41,2 -77,12 -123,11 -48,0 -82,-2 -122,7 -37,9 -80,6 -124,12 -23,2 -24,9 -54,11 -74,3 -78,13 -112,17 -25,3 -47,0 -65,5 -81,19 -83,10 -111,18 -48,13 -144,25 -167,32l-54 10c-23,2 -26,10 -82,18l-589 174c-55,19 -30,19 -68,19 0,-31 -6,-34 -3,-61 6,-51 -3,-143 -3,-215l0 -1513c0,-28 4,-27 3,-54l3 -2251c0,-24 -2,-53 -1,-77 2,-40 25,-42 69,-83 19,-17 27,-16 60,-16 106,1 196,-6 305,-6zm3231 -70c0,-13 33,-56 39,-66 8,-13 1,-3 8,-16 1,-1 1,-3 2,-4 1,-1 1,-3 2,-4l13 -22c10,7 20,15 31,23l73 61c9,9 7,7 14,16 -12,17 -63,46 -91,63 -3,3 -4,30 -53,-7 -13,-10 -38,-27 -38,-44zm-3846 -12l55 -50c12,-9 18,-13 30,-23 15,-11 18,-17 32,-27l49 80c23,42 20,41 4,56 0,0 -16,11 -17,12 -49,37 -44,28 -103,-10 -19,-13 -38,-20 -50,-38zm228 -129c13,-6 118,-9 145,-13 51,-6 100,-4 155,-4 81,0 172,-18 298,-18l447 -28c30,-4 99,4 151,4l1254 -1c87,-12 111,7 212,7 55,0 100,4 147,6 54,2 91,12 146,12 105,-1 198,6 288,17 73,8 102,-8 220,9 30,4 49,2 79,3 59,1 29,18 4,63 -39,70 -38,55 -122,55 -103,-1 -207,0 -310,0 -109,0 -200,-6 -305,-6l-1226 -6c-54,0 -99,1 -135,5 -47,4 -109,1 -158,1 -417,0 -815,6 -1231,6l-59 -112zm1302 -182l0 -340c0,-13 4,-17 18,-17 219,0 156,-10 174,48 2,8 17,41 21,49 18,34 38,57 64,83 26,26 52,38 86,55 69,35 135,31 207,12 54,-14 102,-44 138,-84 7,-8 9,-10 17,-19 4,-6 11,-16 14,-21l22 -37c48,-106 -29,-86 189,-86 13,0 17,4 17,17l0 340c0,14 -4,18 -17,18l-932 0c-14,0 -18,-4 -18,-18zm686 -428c0,52 3,72 -24,123 -16,29 -31,49 -61,68 -1,0 -3,1 -4,2l-11 6c-44,27 -107,42 -156,22 -11,-4 -14,-5 -25,-10l-35 -18c-6,-4 -4,-2 -14,-9 -26,-19 -51,-56 -61,-86 -29,-89 -13,-167 61,-229 5,-4 15,-13 20,-15l23 -12c14,-7 11,-8 30,-11 37,-6 96,-9 129,4l44 26c22,14 24,15 40,37 18,25 44,76 44,102zm-833 -53c0,-15 3,-16 6,-29l258 0c71,0 71,-11 71,47l-335 0 0 -18zm927 0l0 -29 241 6c62,3 93,-35 93,41l-317 0c-13,0 -17,-4 -17,-18zm-545 -129l-88 -6 0 -205 674 0 0 194c0,26 -28,17 -88,17 -38,0 -48,-34 -107,-63l-42 -16c-58,-22 -106,-28 -171,-12l-91 38c-31,17 -46,53 -87,53zm1354 -410l-1631 3c-15,1 -12,-3 -34,-3 -15,0 -23,3 -30,3 -16,1 -12,-3 -35,-3l-475 0c0,-14 -3,-23 -3,-30l3 -82 2194 0c42,8 1,-13 14,80 2,15 4,12 -3,32zm105 -41c0,-86 -11,-71 77,-71 -12,22 -13,17 -35,36 -41,38 -8,27 -42,35zm-2491 -71l76 0 0 71c-24,-3 -30,-15 -43,-28 -21,-21 -20,-15 -33,-43zm2491 -123l0 -164c0,-36 6,-43 6,-76l141 0c13,0 18,4 18,17l0 241 -147 0c-14,0 -18,-4 -18,-18zm-2585 0l0 -223c0,-30 62,-17 146,-17 42,0 22,127 24,211 2,58 31,46 -130,47 -21,0 -40,5 -40,-18zm2480 18c-616,0 -1231,0 -1847,0 -101,0 -204,-2 -305,0 -80,1 -58,11 -58,-252 13,-4 13,-6 29,-6l2169 0c14,0 18,4 18,17 0,38 5,216 -6,241zm152 -364l-41 0 0 -59c15,5 53,46 53,47 4,9 8,-3 -1,7 -5,6 11,5 -11,5zm-2362 -17c0,-64 -9,-94 17,-94l2199 0c0,72 10,111 -18,111l-2181 0c-13,0 -17,-4 -17,-17zm-170 17c5,-19 13,-22 27,-37 14,-14 17,-22 37,-27 0,74 10,64 -64,64zm-299 59l0 358c0,54 40,78 68,107l226 225c19,20 27,31 63,31l680 0c0,139 12,106 -129,106 -49,0 -97,0 -146,0 -8,39 8,-25 -3,9 -6,17 -9,5 -9,32l0 363c0,96 79,34 134,54 17,7 13,7 13,34 0,15 0,32 0,47 -1,34 0,67 0,100 -70,16 -439,16 -550,31 -32,5 -72,4 -113,4 -46,0 -67,7 -111,6 -51,0 -65,3 -108,10 -67,10 -163,-2 -228,6 -147,19 -113,-10 -189,46l-227 183c-7,7 -8,8 -16,14l-18 11 0 4393c25,7 181,142 221,172 19,14 28,23 45,37 46,36 48,37 127,37 218,0 419,-6 639,-6 715,0 1430,0 2146,0l785 6c43,0 86,0 129,0 73,1 77,-8 122,-43l238 -190c14,-13 27,-17 27,-42l0 -4335c0,-37 -58,-69 -83,-92l-50 -38c-39,-33 -146,-131 -183,-140 -20,-5 -82,-11 -106,-11 -41,-2 -65,-6 -111,-6 -40,0 -85,2 -123,0 -35,-2 -68,-12 -106,-12 -41,-1 -75,-6 -111,-6 -36,0 -82,3 -117,-1l-224 -16c-37,-3 -75,3 -113,-3 -50,-7 -182,-23 -232,-3l0 -194c38,0 140,14 140,-23l0 -411c0,-14 -9,-23 -23,-23l-264 0 0 -106 680 0c49,0 75,-40 105,-71 1,-1 2,-2 3,-3l185 -184c29,-31 65,-49 65,-100 0,-63 10,-366 -7,-404l-79 -85c0,-1 -2,-2 -3,-3l-20 -20c-18,-16 -30,-27 -45,-43l-81 -83c-1,-1 -2,-2 -3,-3 -17,-16 -71,-80 -90,-80l-2492 0c-19,0 -74,65 -90,81l-170 170c-29,29 -68,50 -68,107z"/>
    <path class="fil1" d="M3295 4786c-13,3 -14,6 -29,6l-2058 0c-16,0 -16,-3 -30,-6l0 -1672c0,-52 -10,-99 18,-99l2099 0 0 1337c0,74 -2,150 0,223 1,39 13,104 5,168l-3 15c-2,13 -2,14 -2,28zm-2222 -1853l0 1941c0,20 26,23 47,23l240 0c27,0 33,-4 53,-4l354 1c202,4 665,11 849,0 14,-1 8,1 25,-1l214 -2c30,1 33,6 64,7l440 -1c21,0 23,-4 41,-6l0 -1976c-18,-2 -20,-6 -41,-6l-2239 0c-21,0 -47,3 -47,24z"/>
  </g>
</svg>